# xmcd
#
# Track frame offsets:
#	150
#	12069
#	24925
#	38642
#	52811
#	64572
#	77715
#	91612
#	105170
#	118268
#	129136
#	140469
#	151946
#	162928
#	175105
#	187516
#	197973
#	210480
#	223280
#	236236
#	249973
#	262175
#	272394
#	284936
#	297032
#	310321
#	323219
#	337126
#
# Disc length: 4667 seconds
#
# Revision: 1
# Processed by: cddbd v1.5.2PL0 Copyright (c) Steve Scherf et al.
# Submitted via: EZCDAudioConverter 3.1.0.1
#
DISCID=8312391c
DTITLE=Chicago Is Just That Way [1947-1948]cdC
DYEAR=1947
DGENRE=Blues
TTITLE0=Sunnyland Slim - Jivin' Boogie
TTITLE1=Sunnyland Slim - Brown Skin Woman
TTITLE2=Sunnyland Slim - 5 Foot 4 Gal
TTITLE3=Sunnyland Slim - I've Done You Wrong
TTITLE4=Big Joe Williams - Worried Man Blues
TTITLE5=Johnny Young - Money Taking Woman
TTITLE6=Sonny Boy Williamson - Bring Another Half a Pint
TTITLE7=Sonny Boy Williamson - Better Cut That Out
TTITLE8=Eddie Boyd - Blue Monday Blues
TTITLE9=Roosevelt Sykes - Lowland Blues
TTITLE10=Roosevelt Sykes - Savoy Boogie
TTITLE11=Roosevelt Sykes - Candy Man Blues
TTITLE12=Roosevelt Sykes - Why Should I Cry
TTITLE13=Floyd Jones - Hard Times
TTITLE14=Floyd Jones - School Days
TTITLE15=Snooky and Moody - Boogie
TTITLE16=Snooky and Moody - Telephone Blues
TTITLE17=Jimmy Rogers - Little Store Blues
TTITLE18=Lillie Mae - Lovin' Man Blues
TTITLE19=St. Louis Jimmy - One Doggone Reason
TTITLE20=St. Louis Jimmy - Coming Up Fast
TTITLE21=Little Walter - Blue Baby
TTITLE22=Little Walter - I Want My Baby
TTITLE23=Man Young - Let Me Ride Your Mule
TTITLE24=Man Young - My Baby Walked Out
TTITLE25=Eddie Boyd - Chicago Is Just That Way
TTITLE26=Big Bill Broonzy - I Love My Whiskey
TTITLE27=Big Bill Broonzy - Water Coast Blues
EXTD=
EXTT0=
EXTT1=
EXTT2=
EXTT3=
EXTT4=
EXTT5=
EXTT6=
EXTT7=
EXTT8=
EXTT9=
EXTT10=
EXTT11=
EXTT12=
EXTT13=
EXTT14=
EXTT15=
EXTT16=
EXTT17=
EXTT18=
EXTT19=
EXTT20=
EXTT21=
EXTT22=
EXTT23=
EXTT24=
EXTT25=
EXTT26=
EXTT27=
PLAYORDER=
